<svg xmlns="http://www.w3.org/2000/svg" viewBox="0 0 200 200">
  <defs>
    <radialGradient id="hG" cx="50%" cy="40%" r="55%">
      <stop offset="0%" stop-color="#7FFFD4"/>
      <stop offset="100%" stop-color="#00C896"/>
    </radialGradient>
  </defs>
  <circle cx="100" cy="100" r="96" fill="#0D1F1A"/>
  <polygon points="100,38 122,50 122,74 100,86 78,74 78,50" fill="#0D2B22" stroke="url(#hG)" stroke-width="2"/>
  <line x1="100" y1="38" x2="100" y2="86" stroke="#00C896" stroke-width="1" opacity="0.4"/>
  <line x1="78" y1="50" x2="122" y2="74" stroke="#00C896" stroke-width="1" opacity="0.4"/>
  <line x1="122" y1="50" x2="78" y2="74" stroke="#00C896" stroke-width="1" opacity="0.4"/>
  <circle cx="100" cy="62" r="4" fill="url(#hG)"/>
  <rect x="88" y="86" width="24" height="7" rx="1" fill="#0D2B22" stroke="#00C896" stroke-width="1.5"/>
  <rect x="94" y="93" width="12" height="30" rx="1" fill="#0A1F18" stroke="#00C896" stroke-width="1.3"/>
  <rect x="87" y="123" width="26" height="6" rx="1" fill="#0D2B22" stroke="#00C896" stroke-width="1.5"/>
  <g stroke="#00C896" stroke-width="1.4" stroke-linecap="round">
    <line x1="89" y1="129" x2="72" y2="148"/>
    <line x1="91" y1="129" x2="80" y2="155"/>
    <line x1="93" y1="129" x2="88" y2="158"/>
    <line x1="111" y1="129" x2="128" y2="148"/>
    <line x1="109" y1="129" x2="120" y2="155"/>
    <line x1="107" y1="129" x2="112" y2="158"/>
  </g>
  <g fill="#00C896">
    <circle cx="72" cy="149" r="2.5"/><circle cx="80" cy="156" r="2.5"/>
    <circle cx="88" cy="159" r="2.5"/><circle cx="128" cy="149" r="2.5"/>
    <circle cx="120" cy="156" r="2.5"/><circle cx="112" cy="159" r="2.5"/>
  </g>
</svg>
